<svg t="1592269688154" class="icon" viewBox="0 0 1024 1024" version="1.1" xmlns="http://www.w3.org/2000/svg" p-id="4875" width="64" height="64"><path d="M422.5 261.3c0-9.2-7.4-16.6-16.6-16.6-9.2 0-16.6 7.4-16.6 16.6 0 9.2 7.4 16.6 16.6 16.6 9.2 0 16.6-7.4 16.6-16.6z m62.2 0c0-9.2-7.4-16.6-16.6-16.6-9.2 0-16.6 7.4-16.6 16.6 0 9.2 7.4 16.6 16.6 16.6 9.2 0 16.6-7.4 16.6-16.6zM257 335.6c-2.6 12.2-3.9 24.8-3.9 37.6 0 6.6 0.4 13.1 1.1 19.7 3.7-1.7 7.4-3.3 11.2-4.8-0.4-4.6-0.6-9.2-0.6-13.9 0-11.3 1.1-22.3 3.2-33l-11-5.6zM437.1 346c12.3 0 22.4-10 22.4-22.4v-24.3h-44.8v24.3c0 12.4 10 22.4 22.4 22.4z m445.5 112.8h64.2c4.8 0 8.7-3.9 8.7-8.7 0-4.9-3.9-8.7-8.7-8.7h-20.6c0.2-1 0.3-1.9 0.3-2.9 0-11.3-9.2-20.4-20.4-20.4h-23.4c-11.3 0-20.4 9.2-20.4 20.4-0.1 11.1 9 20.3 20.3 20.3zM79 493.9h25.3c4.8 0 8.7-3.9 8.7-8.7 0-4.9-3.9-8.7-8.7-8.7H79c-4.9 0-8.7 3.9-8.7 8.7 0 4.8 3.9 8.7 8.7 8.7z m465.6-248.5c-2.1 2.8-3.4 6.3-3.4 10 0 9.2 7.4 16.6 16.6 16.6 3.5 0 6.7-1.1 9.4-2.9-6.8-8.6-14.4-16.5-22.6-23.7zM403.8 395.1c25.2 9.6 50 17.9 73.5 24.8 10-1.3 20.4-2 30.8-2 4.1 0 8.2 0.1 12.3 0.4-32.9-8.4-69.7-20-108-34.5-54.1-20.6-102.1-43.6-138.2-65.2C297.3 250.7 361.5 202 437.1 202c95.1 0 172.2 77.1 172.2 172.2 0 8.8-0.7 17.4-1.9 25.8 3.4-1.8 6.8-3.3 10.3-4.8 0.9-7.2 1.3-14.5 1.3-22 0-101-81.9-182.9-182.9-182.9-79.6 0-147.3 50.8-172.4 121.8-39.7-25.2-62-47.8-56.8-61.7 5.3-13.8 37.3-16 84.2-8.2 3.5-4.1 7.3-8.2 11.2-12.1-66-12.4-113.1-9.8-120.8 10.6-12.8 33.6 86.7 102.7 222.3 154.4z m239.5-0.5c6.6 0.1 13 0.9 19.2 2.3-7.7-9.7-19.1-20.3-33.8-31.3v0.8c0 4.8-0.3 9.5-0.6 14.2 6 4.9 11.1 9.6 15.2 14z m135.8-182.2c-1.6 1.6-2.6 3.7-2.6 6.2 0 4.8 3.9 8.7 8.7 8.7 2.9 0 5.5-1.4 7.1-3.7-3.8-4.3-8.3-8-13.2-11.2z m-6.9 379.4c7.8 4.5 16.9 7.1 26.7 7.1 29.5 0 53.5-24 53.5-53.5s-24-53.5-53.5-53.5-53.5 24-53.5 53.5c0 13.7 5.1 26.2 13.6 35.6l-3.4 16.2 16.6-5.4z m19.9-72.6c0-3.3 2.6-5.8 5.8-5.8 3.3 0 5.8 2.6 5.8 5.8v29.2c0 3.3-2.6 5.8-5.8 5.8-3.3 0-5.8-2.6-5.8-5.8v-29.2z m0 47.6c0-2.6 2.2-4.9 4.8-4.9h1.9c2.6 0 4.8 2.2 4.8 4.9v1.9c0 2.6-2.2 4.8-4.8 4.8H797c-2.6 0-4.8-2.2-4.8-4.8v-1.9z m169.3 14.6c0-45.1-36.6-81.7-81.7-81.7-4.7 0-9.3 0.4-13.7 1.2-6.7-13.9-17.2-25.6-30.2-33.8 2-4.9 3.1-10.4 3.1-16 0-23.6-19.1-42.8-42.8-42.8-2.9 0-5.8 0.3-8.6 0.9-8.1-15.2-12.8-33.1-12.8-52.4 0-0.5 0-1.1 0.1-1.6 49.2-2.3 85.6-10.8 85.6-20.8 0-6.4-15.1-12.2-39-16.1v-50c0-43-34.8-77.8-77.8-77.8s-77.8 34.8-77.8 77.8v51.3c-19.3 3.9-31.1 9-31.1 14.7 0 9.6 33.2 17.7 79 20.4-2.1 26.8-9.3 50.2-19.5 66.3-14.1-11.5-32.2-18.5-51.8-18.5-28.4 0-53.3 14.5-67.9 36.4-20.4-9.6-43.2-15-67.2-15-23.6 0-46 5.2-66.1 14.5-26.9-33.8-68.3-55.3-114.8-55.3-76.8 0-139.7 58.9-146.3 134-47.8 16-88.3 48.2-114.8 90.1 4.1 0.7 8.1 1.6 12.2 2.6 25.9-39 64.7-68.8 110.3-83.1 0.3-1.5 1.4-4.8 1.7-5 4.8-71.9 64.6-128.8 137.8-128.8 48.4 0 91 24.9 115.7 62.7-20.9 1.4-40.6 6.7-58.5 15.3 2 2.6 3.9 5.3 5.6 8.1 19.4-9 41-14.1 63.8-14.1 11.5 0 22.7 1.3 33.5 3.8 1.6-3 3.2-6 4.8-8.9-12.3-3-25.1-4.6-38.3-4.6h-1.1c-1.7-2.9-3.5-5.7-5.4-8.5 18.6-8.3 39.2-13 61-13 53.8 0 100.9 28.3 127.3 70.9 1.7-2.6 3.4-5 5.3-7.5-14.7-22.9-35.2-41.8-59.2-54.6 13.3-19.4 35.6-32.1 61-32.1 18 0 34.5 6.4 47.2 17.1-2.9 3.6-5.9 6.7-9.2 9.1 2.1 2 4.1 4.2 5.9 6.4 19.4-17.5 33-56 33.8-100.9-1.9 0.1-3.8 0.2-5.7 0.2h-0.1c0 1.5-0.1 3-0.2 4.4-3.5-1.1-5.6-2.2-5.6-3.4 0-3.8 17.9-6.8 39.9-6.8s39.9 3.1 39.9 6.8c0 2-5.1 3.8-13.2 5 0.1-1.7 0.3-3.3 0.4-5-2.6 0.5-5.3 0.8-8 0.9-0.5 19.4-0.5 48.2 19.7 79 2.8-0.4 5.6-0.7 8.6-1-1.9-2.5-3.5-5-5.2-7.7 1.8-0.3 3.6-0.4 5.6-0.4 20.4 0 36.9 16.6 36.9 36.9 0 10.1-4.1 19.3-10.7 26 0.5 2.3 0.8 4.7 0.9 7.1 3.4-2.8 6.5-6.3 8.9-10 13 8.2 23.1 20.4 28.8 34.8 0.5-0.1 1.1-0.2 1.5-0.3 0.2 0.4 0.4 0.6 0.6 1 5.6-1.3 11.5-2.1 17.6-2.1 41.3 0 74.9 33.6 74.9 74.9 0 41.3-33.6 74.9-74.9 74.9-1.7 0-3.3-0.1-5-0.2 3.3-8.4 5.3-17.4 5.8-26.8-3.3 1.3-6.7 2.5-10.2 3.6-2.8 23.4-15.9 43.7-34.5 56.3 0 4.1-0.3 8.2-0.6 12.2 16.1-9 29.1-22.9 37-39.7 2.1 0.2 4.3 0.3 6.4 0.3 13.7 0 26.8-3.4 38.2-9.4 12.4 11.2 20.2 27.4 20.2 45.5 0 16.5-6.5 31.4-17.1 42.4 1.1 2.6 2.1 5.3 3 8 13.5-12.6 21.9-30.5 21.9-50.4 0-19.5-8.1-37-21.1-49.6 21.8-14.6 36.3-39.7 36.3-68.1z m-214-268.5c-28.3 0-54.1 1.9-73.8 5.2 0-0.5-0.1-1.1-0.1-1.7v-48.3c0-38.7 31.4-70.1 70.1-70.1 38.7 0 70.1 31.4 70.1 70.1v48.7c-18.7-2.4-41.6-3.9-66.3-3.9z m-2-70.1c-18.2 0-33 14.8-33 33v34.4c11-0.9 22.8-1.3 35-1.3 10.8 0 21.2 0.4 31.1 1.1v-34.1c0-18.2-14.8-33.1-33.1-33.1z m-9.7 40.9c-3.3 0-5.8-2.6-5.8-5.8 0-3.3 2.6-5.8 5.8-5.8 3.3 0 5.8 2.6 5.8 5.8 0.1 3.1-2.6 5.8-5.8 5.8z m19.4 0c-3.3 0-5.8-2.6-5.8-5.8 0-3.3 2.6-5.8 5.8-5.8 3.3 0 5.8 2.6 5.8 5.8 0.1 3.1-2.5 5.8-5.8 5.8z m-409.7 130c0.9-2.6 1.7-5.1 2.6-7.7-6.8-1.1-13.8-1.8-20.9-1.8-6 0-11.9 0.4-17.7 1.2 1.1 2.4 1.9 4.8 2.7 7.4 4.6-0.5 9.3-0.9 14.1-0.9 6.6 0.2 13 0.8 19.2 1.8z" p-id="4876"></path><path d="M265.2 761.9c-6.7 0-15.4 0.4-26.2 1.2-10.8 0.8-21.3 0.6-31.5-0.7-10.2-1.3-19-4.4-26.5-9.5s-11.2-13.3-11.2-24.8v-5.2c0-2.9 0.2-4.6 0.5-5.2 1.3-2.9 3.9-7.9 7.9-15 4-7.2 8.2-14.6 12.6-22.4 4.4-7.8 8.7-15.2 12.9-22.2 4.1-7 7-11.9 8.6-14.8 1.3-1.9 3.1-4.8 5.5-8.8 2.4-4 5.1-7.9 8.1-11.7 3-3.8 6.4-7.2 10.3-10.2 3.8-3 7.6-4.5 11.4-4.5s7.2 1 10 2.9c2.9 1.9 4.3 5.1 4.3 9.5 0 8.9-3.3 17.8-10 26.7-6.7 8.9-14 17.8-21.9 26.7-7.9 8.9-15.3 17.7-21.9 26.5-6.7 8.7-10 17.4-10 26 0 2.9 1.3 5 3.8 6.4 2.5 1.4 5.6 2.3 9.1 2.6 3.5 0.3 7.1 0.4 10.7 0.2 3.6-0.2 6.6-0.2 8.8-0.2h3.3c1.3-0.3 3.6-0.8 6.9-1.4 3.3-0.6 6.9-1.3 10.7-1.9 3.8-0.6 7.4-1.3 10.7-2.1 3.3-0.8 5.6-1.3 6.9-1.7 4.4-1.9 7.4-6.3 8.8-13.1 1.4-6.8 3.3-14 5.5-21.5s5.7-14.2 10.5-20.3c4.8-6 12.6-9.1 23.4-9.1 4.8 0 9.1 1.1 13.1 3.3 4 2.2 7.4 5.1 10.2 8.6 2.9 3.5 5.2 7.5 6.9 11.9 1.7 4.5 2.6 8.9 2.6 13.3 0 7.9-1.3 14.5-3.8 19.8-2.5 5.2-6 9.8-10.5 13.6-4.5 3.8-9.7 7.1-15.7 9.8-6 2.7-12.6 5.5-19.5 8.3-3.2 3.5-4.9 8.6-5.2 15.3-0.3 6.7-0.8 13.3-1.4 20-0.6 6.7-2.1 12.5-4.3 17.4-2.2 4.9-6.8 7.4-13.8 7.4-1.9 0-4.1-0.4-6.7-1.2-2.5-0.8-3.8-2.8-3.8-6v-43.9z m54.3-66.3c-4.8 0-8 2.2-9.8 6.7-1.8 4.5-2.6 8.7-2.6 12.9 6.4 0 10-1.7 11-5.2 1-3.6 1.4-8.3 1.4-14.4z m60.1 43.9c0-14.3 1.6-29.8 4.8-46.5 3.2-16.7 8.4-32.2 15.7-46.5 7.3-14.3 17-26.1 29.1-35.5 12.1-9.4 27.2-14.1 45.3-14.1 4.1 0 7.6 0.2 10.5 0.5 2.9 0.3 6.2 1.3 10 2.9 7.3 6.7 13.3 12.7 18.1 18.1 4.8 5.4 8.5 11 11.2 16.9 2.7 5.9 4.6 12.4 5.7 19.5 1.1 7.2 1.7 15.7 1.7 25.5 0 14-2.1 29.2-6.2 45.5-4.1 16.4-10.4 31.5-18.8 45.5s-18.9 25.6-31.5 34.8c-12.6 9.2-27.4 13.8-44.6 13.8-10.2 0-18.6-2.8-25.3-8.3-6.7-5.6-11.9-12.4-15.7-20.5s-6.4-16.8-7.9-26.2c-1.4-9.3-2.1-17.8-2.1-25.4z m29.6 0.5c0 4.1 0.2 8.9 0.5 14.3s1.3 10.6 2.9 15.5c1.6 4.9 3.9 9.1 6.9 12.4 3 3.3 7.4 5 13.1 5 12.1 0 22.5-3.8 31.2-11.4 8.7-7.6 15.9-16.9 21.5-27.9s9.7-22.6 12.4-35c2.7-12.4 4.1-23.4 4.1-32.9 0-6.7-0.4-13-1.2-19.1-0.8-6-2.5-11.4-5-16s-6.1-8.3-10.7-11c-4.6-2.7-10.6-4.1-17.9-4.1-11.4 0-20.9 4.1-28.4 12.4S425.3 660.4 421 672c-4.3 11.6-7.3 23.7-9.1 36.2-1.9 12.6-2.7 23.2-2.7 31.8z m260.3 21.9c-6.7 0-15.4 0.4-26.2 1.2-10.8 0.8-21.3 0.6-31.5-0.7-10.2-1.3-19-4.4-26.5-9.5s-11.2-13.3-11.2-24.8v-5.2c0-2.9 0.2-4.6 0.5-5.2 1.3-2.9 3.9-7.9 7.9-15 4-7.2 8.2-14.6 12.6-22.4 4.4-7.8 8.7-15.2 12.9-22.2 4.1-7 7-11.9 8.6-14.8 1.3-1.9 3.1-4.8 5.5-8.8 2.4-4 5.1-7.9 8.1-11.7 3-3.8 6.4-7.2 10.2-10.2 3.8-3 7.6-4.5 11.4-4.5 3.8 0 7.2 1 10 2.9s4.3 5.1 4.3 9.5c0 8.9-3.3 17.8-10 26.7-6.7 8.9-14 17.8-21.9 26.7-7.9 8.9-15.3 17.7-21.9 26.5-6.7 8.7-10 17.4-10 26 0 2.9 1.3 5 3.8 6.4 2.5 1.4 5.6 2.3 9.1 2.6 3.5 0.3 7.1 0.4 10.7 0.2 3.7-0.2 6.6-0.2 8.8-0.2h3.3c1.3-0.3 3.6-0.8 6.9-1.4 3.3-0.6 6.9-1.3 10.7-1.9 3.8-0.6 7.4-1.3 10.7-2.1 3.3-0.8 5.6-1.3 6.9-1.7 4.4-1.9 7.4-6.3 8.8-13.1 1.4-6.8 3.3-14 5.5-21.5s5.7-14.2 10.5-20.3c4.8-6 12.6-9.1 23.4-9.1 4.8 0 9.1 1.1 13.1 3.3 4 2.2 7.4 5.1 10.3 8.6 2.9 3.5 5.2 7.5 6.9 11.9 1.7 4.5 2.6 8.9 2.6 13.3 0 7.9-1.3 14.5-3.8 19.8-2.5 5.2-6 9.8-10.5 13.6-4.5 3.8-9.7 7.1-15.7 9.8-6 2.7-12.6 5.5-19.5 8.3-3.2 3.5-4.9 8.6-5.2 15.3-0.3 6.7-0.8 13.3-1.4 20-0.6 6.7-2.1 12.5-4.3 17.4-2.2 4.9-6.8 7.4-13.8 7.4-1.9 0-4.1-0.4-6.7-1.2-2.5-0.8-3.8-2.8-3.8-6v-43.9z m54.3-66.3c-4.8 0-8 2.2-9.8 6.7-1.8 4.5-2.6 8.7-2.6 12.9 6.4 0 10-1.7 11-5.2 0.9-3.6 1.4-8.3 1.4-14.4z" p-id="4877"></path></svg>